solid 
 facet normal -1.000000e+00  0.000000e+00 -0.000000e+00
   outer loop
     vertex -4.000000e-03  1.000000e-02  1.348383e-03
     vertex -4.000000e-03  1.000000e-02  9.241604e-04
     vertex -4.000000e-03  0.000000e+00  9.241604e-04
   endloop
 endfacet
 facet normal -1.000000e+00 -0.000000e+00  0.000000e+00
   outer loop
     vertex -4.000000e-03  1.000000e-02  1.348383e-03
     vertex -4.000000e-03  0.000000e+00  9.241604e-04
     vertex -4.000000e-03  0.000000e+00  1.348383e-03
   endloop
 endfacet
endsolid
